<svg xmlns="http://www.w3.org/2000/svg" xmlns:xlink="http://www.w3.org/1999/xlink" width="500" zoomAndPan="magnify" viewBox="0 0 375 374.999991" height="500" preserveAspectRatio="xMidYMid meet" version="1.0"><defs><g/></defs><rect x="-37.5" width="450" fill="#ffffff" y="-37.499999" height="449.999989" fill-opacity="1"/><rect x="-37.5" width="450" fill="#ffffff" y="-37.499999" height="449.999989" fill-opacity="1"/><g fill="#000000" fill-opacity="1"><g transform="translate(46.138979, 156.445696)"><g><path d="M 97.703125 0 L 76.25 0 L 64.21875 -46.671875 C 63.78125 -48.328125 63.019531 -51.753906 61.9375 -56.953125 C 60.863281 -62.160156 60.25 -65.65625 60.09375 -67.4375 C 59.851562 -65.25 59.242188 -61.734375 58.265625 -56.890625 C 57.296875 -52.054688 56.546875 -48.609375 56.015625 -46.546875 L 44.046875 0 L 22.65625 0 L 0 -88.828125 L 18.53125 -88.828125 L 29.890625 -40.34375 C 31.878906 -31.394531 33.316406 -23.640625 34.203125 -17.078125 C 34.453125 -19.378906 35.007812 -22.953125 35.875 -27.796875 C 36.75 -32.640625 37.570312 -36.394531 38.34375 -39.0625 L 51.28125 -88.828125 L 69.078125 -88.828125 L 82.03125 -39.0625 C 82.59375 -36.84375 83.296875 -33.441406 84.140625 -28.859375 C 84.992188 -24.285156 85.644531 -20.359375 86.09375 -17.078125 C 86.5 -20.234375 87.144531 -24.171875 88.03125 -28.890625 C 88.925781 -33.609375 89.738281 -37.425781 90.46875 -40.34375 L 101.78125 -88.828125 L 120.3125 -88.828125 Z M 97.703125 0 "/></g></g></g><g fill="#000000" fill-opacity="1"><g transform="translate(129.842823, 306.154721)"><g><path d="M 33.855469 -23.898438 L 33.855469 -139.402344 L 9.957031 -139.402344 L 9.957031 -23.898438 L 33.855469 -23.898438 L 33.855469 0 L 81.652344 0 L 81.652344 -23.898438 Z M 81.652344 -139.402344 L 81.652344 -23.898438 L 105.546875 -23.898438 L 105.546875 -139.402344 Z M 81.652344 -139.402344 "/></g></g></g><g fill="#000000" fill-opacity="1"><g transform="translate(217.441557, 152.996494)"><g><path d="M 90.484375 0 L 70.609375 0 L 59.46875 -43.21875 C 59.0625 -44.75 58.359375 -47.925781 57.359375 -52.75 C 56.367188 -57.570312 55.796875 -60.804688 55.640625 -62.453125 C 55.421875 -60.429688 54.859375 -57.175781 53.953125 -52.6875 C 53.054688 -48.207031 52.363281 -45.007812 51.875 -43.09375 L 40.796875 0 L 20.984375 0 L 0 -82.265625 L 17.15625 -82.265625 L 27.6875 -37.359375 C 29.519531 -29.066406 30.847656 -21.882812 31.671875 -15.8125 C 31.898438 -17.945312 32.414062 -21.253906 33.21875 -25.734375 C 34.03125 -30.222656 34.789062 -33.703125 35.5 -36.171875 L 47.484375 -82.265625 L 63.96875 -82.265625 L 75.953125 -36.171875 C 76.484375 -34.109375 77.140625 -30.957031 77.921875 -26.71875 C 78.710938 -22.488281 79.316406 -18.851562 79.734375 -15.8125 C 80.109375 -18.738281 80.707031 -22.382812 81.53125 -26.75 C 82.351562 -31.125 83.101562 -34.660156 83.78125 -37.359375 L 94.25 -82.265625 L 111.40625 -82.265625 Z M 90.484375 0 "/></g></g></g><g fill="#000000" fill-opacity="1"><g transform="translate(100.522498, 141.529671)"><g><path d="M 10.21875 0 L 7.59375 0 L 7.59375 -5.59375 C 7.59375 -6.976562 7.082031 -7.671875 6.0625 -7.671875 C 5.320312 -7.671875 4.789062 -7.421875 4.46875 -6.921875 C 4.144531 -6.421875 3.984375 -5.613281 3.984375 -4.5 L 3.984375 0 L 1.375 0 L 1.375 -13.328125 L 3.984375 -13.328125 L 3.984375 -10.609375 C 3.984375 -10.398438 3.960938 -9.90625 3.921875 -9.125 L 3.859375 -8.359375 L 4 -8.359375 C 4.582031 -9.296875 5.507812 -9.765625 6.78125 -9.765625 C 7.90625 -9.765625 8.757812 -9.457031 9.34375 -8.84375 C 9.925781 -8.238281 10.21875 -7.375 10.21875 -6.25 Z M 10.21875 0 "/></g></g></g><g fill="#000000" fill-opacity="1"><g transform="translate(100.994457, 165.539089)"><g><path d="M 7.453125 0 L 6.953125 -1.296875 L 6.875 -1.296875 C 6.4375 -0.742188 5.984375 -0.359375 5.515625 -0.140625 C 5.054688 0.0664062 4.453125 0.171875 3.703125 0.171875 C 2.785156 0.171875 2.0625 -0.0859375 1.53125 -0.609375 C 1 -1.140625 0.734375 -1.890625 0.734375 -2.859375 C 0.734375 -3.878906 1.085938 -4.628906 1.796875 -5.109375 C 2.515625 -5.585938 3.585938 -5.851562 5.015625 -5.90625 L 6.6875 -5.96875 L 6.6875 -6.390625 C 6.6875 -7.359375 6.1875 -7.84375 5.1875 -7.84375 C 4.425781 -7.84375 3.53125 -7.609375 2.5 -7.140625 L 1.625 -8.90625 C 2.726562 -9.488281 3.953125 -9.78125 5.296875 -9.78125 C 6.578125 -9.78125 7.5625 -9.5 8.25 -8.9375 C 8.9375 -8.375 9.28125 -7.523438 9.28125 -6.390625 L 9.28125 0 Z M 6.6875 -4.4375 L 5.671875 -4.40625 C 4.910156 -4.382812 4.34375 -4.242188 3.96875 -3.984375 C 3.601562 -3.734375 3.421875 -3.351562 3.421875 -2.84375 C 3.421875 -2.101562 3.84375 -1.734375 4.6875 -1.734375 C 5.289062 -1.734375 5.773438 -1.90625 6.140625 -2.25 C 6.503906 -2.601562 6.6875 -3.070312 6.6875 -3.65625 Z M 6.6875 -4.4375 "/></g></g></g><g fill="#000000" fill-opacity="1"><g transform="translate(102.482944, 189.548506)"><g><path d="M 5.40625 -1.90625 C 5.863281 -1.90625 6.410156 -2.003906 7.046875 -2.203125 L 7.046875 -0.265625 C 6.398438 0.0234375 5.601562 0.171875 4.65625 0.171875 C 3.601562 0.171875 2.835938 -0.0859375 2.359375 -0.609375 C 1.890625 -1.140625 1.65625 -1.9375 1.65625 -3 L 1.65625 -7.609375 L 0.40625 -7.609375 L 0.40625 -8.71875 L 1.84375 -9.59375 L 2.59375 -11.625 L 4.265625 -11.625 L 4.265625 -9.578125 L 6.953125 -9.578125 L 6.953125 -7.609375 L 4.265625 -7.609375 L 4.265625 -3 C 4.265625 -2.625 4.367188 -2.347656 4.578125 -2.171875 C 4.785156 -1.992188 5.0625 -1.90625 5.40625 -1.90625 Z M 5.40625 -1.90625 "/></g></g></g><g fill="#000000" fill-opacity="1"><g transform="translate(101.103371, 213.557924)"><g><path d="M 5.34375 -7.90625 C 4.78125 -7.90625 4.34375 -7.726562 4.03125 -7.375 C 3.71875 -7.019531 3.539062 -6.519531 3.5 -5.875 L 7.15625 -5.875 C 7.144531 -6.519531 6.976562 -7.019531 6.65625 -7.375 C 6.332031 -7.726562 5.894531 -7.90625 5.34375 -7.90625 Z M 5.703125 0.171875 C 4.160156 0.171875 2.953125 -0.25 2.078125 -1.09375 C 1.210938 -1.945312 0.78125 -3.15625 0.78125 -4.71875 C 0.78125 -6.320312 1.179688 -7.5625 1.984375 -8.4375 C 2.796875 -9.320312 3.910156 -9.765625 5.328125 -9.765625 C 6.671875 -9.765625 7.71875 -9.378906 8.46875 -8.609375 C 9.226562 -7.835938 9.609375 -6.769531 9.609375 -5.40625 L 9.609375 -4.140625 L 3.4375 -4.140625 C 3.46875 -3.398438 3.6875 -2.820312 4.09375 -2.40625 C 4.507812 -1.988281 5.085938 -1.78125 5.828125 -1.78125 C 6.398438 -1.78125 6.941406 -1.835938 7.453125 -1.953125 C 7.972656 -2.078125 8.515625 -2.269531 9.078125 -2.53125 L 9.078125 -0.5 C 8.617188 -0.269531 8.128906 -0.101562 7.609375 0 C 7.085938 0.113281 6.453125 0.171875 5.703125 0.171875 Z M 5.703125 0.171875 "/></g></g></g><g fill="#000000" fill-opacity="1"><g transform="translate(101.296995, 237.567342)"><g><path d="M 3.65625 0 L 0 -9.578125 L 2.734375 -9.578125 L 4.578125 -4.125 C 4.785156 -3.425781 4.914062 -2.769531 4.96875 -2.15625 L 5.015625 -2.15625 C 5.046875 -2.707031 5.175781 -3.363281 5.40625 -4.125 L 7.25 -9.578125 L 9.984375 -9.578125 L 6.328125 0 Z M 3.65625 0 "/></g></g></g><g fill="#000000" fill-opacity="1"><g transform="translate(101.103371, 261.57676)"><g><path d="M 5.34375 -7.90625 C 4.78125 -7.90625 4.34375 -7.726562 4.03125 -7.375 C 3.71875 -7.019531 3.539062 -6.519531 3.5 -5.875 L 7.15625 -5.875 C 7.144531 -6.519531 6.976562 -7.019531 6.65625 -7.375 C 6.332031 -7.726562 5.894531 -7.90625 5.34375 -7.90625 Z M 5.703125 0.171875 C 4.160156 0.171875 2.953125 -0.25 2.078125 -1.09375 C 1.210938 -1.945312 0.78125 -3.15625 0.78125 -4.71875 C 0.78125 -6.320312 1.179688 -7.5625 1.984375 -8.4375 C 2.796875 -9.320312 3.910156 -9.765625 5.328125 -9.765625 C 6.671875 -9.765625 7.71875 -9.378906 8.46875 -8.609375 C 9.226562 -7.835938 9.609375 -6.769531 9.609375 -5.40625 L 9.609375 -4.140625 L 3.4375 -4.140625 C 3.46875 -3.398438 3.6875 -2.820312 4.09375 -2.40625 C 4.507812 -1.988281 5.085938 -1.78125 5.828125 -1.78125 C 6.398438 -1.78125 6.941406 -1.835938 7.453125 -1.953125 C 7.972656 -2.078125 8.515625 -2.269531 9.078125 -2.53125 L 9.078125 -0.5 C 8.617188 -0.269531 8.128906 -0.101562 7.609375 0 C 7.085938 0.113281 6.453125 0.171875 5.703125 0.171875 Z M 5.703125 0.171875 "/></g></g></g><g fill="#000000" fill-opacity="1"><g transform="translate(102.301421, 285.586178)"><g><path d="M 6.71875 -9.765625 C 7.070312 -9.765625 7.363281 -9.738281 7.59375 -9.6875 L 7.40625 -7.234375 C 7.1875 -7.285156 6.925781 -7.3125 6.625 -7.3125 C 5.789062 -7.3125 5.140625 -7.097656 4.671875 -6.671875 C 4.210938 -6.242188 3.984375 -5.644531 3.984375 -4.875 L 3.984375 0 L 1.375 0 L 1.375 -9.578125 L 3.34375 -9.578125 L 3.734375 -7.96875 L 3.859375 -7.96875 C 4.160156 -8.507812 4.5625 -8.941406 5.0625 -9.265625 C 5.570312 -9.597656 6.125 -9.765625 6.71875 -9.765625 Z M 6.71875 -9.765625 "/></g></g></g><g fill="#000000" fill-opacity="1"><g transform="translate(264.662068, 154.236883)"><g><path d="M 13.78125 0 L 10.75 0 L 9.0625 -6.578125 C 9 -6.816406 8.890625 -7.300781 8.734375 -8.03125 C 8.585938 -8.769531 8.5 -9.265625 8.46875 -9.515625 C 8.4375 -9.203125 8.351562 -8.703125 8.21875 -8.015625 C 8.082031 -7.335938 7.976562 -6.851562 7.90625 -6.5625 L 6.21875 0 L 3.203125 0 L 0 -12.53125 L 2.609375 -12.53125 L 4.21875 -5.6875 C 4.5 -4.425781 4.703125 -3.332031 4.828125 -2.40625 C 4.859375 -2.726562 4.9375 -3.226562 5.0625 -3.90625 C 5.1875 -4.59375 5.300781 -5.128906 5.40625 -5.515625 L 7.234375 -12.53125 L 9.734375 -12.53125 L 11.5625 -5.515625 C 11.644531 -5.191406 11.742188 -4.707031 11.859375 -4.0625 C 11.984375 -3.414062 12.078125 -2.863281 12.140625 -2.40625 C 12.191406 -2.851562 12.28125 -3.410156 12.40625 -4.078125 C 12.539062 -4.742188 12.65625 -5.28125 12.75 -5.6875 L 14.34375 -12.53125 L 16.96875 -12.53125 Z M 13.78125 0 "/></g></g></g><g fill="#000000" fill-opacity="1"><g transform="translate(267.094474, 178.2463)"><g><path d="M 9.25 0 L 8.34375 -2.984375 L 3.765625 -2.984375 L 2.859375 0 L 0 0 L 4.421875 -12.578125 L 7.671875 -12.578125 L 12.109375 0 Z M 7.703125 -5.203125 C 6.859375 -7.910156 6.382812 -9.441406 6.28125 -9.796875 C 6.175781 -10.148438 6.101562 -10.425781 6.0625 -10.625 C 5.875 -9.894531 5.332031 -8.085938 4.4375 -5.203125 Z M 7.703125 -5.203125 "/></g></g></g><g fill="#000000" fill-opacity="1"><g transform="translate(266.017438, 202.255718)"><g><path d="M 12.6875 0 L 9.3125 0 L 3.859375 -9.46875 L 3.78125 -9.46875 C 3.894531 -7.800781 3.953125 -6.609375 3.953125 -5.890625 L 3.953125 0 L 1.578125 0 L 1.578125 -12.53125 L 4.921875 -12.53125 L 10.359375 -3.140625 L 10.421875 -3.140625 C 10.335938 -4.773438 10.296875 -5.925781 10.296875 -6.59375 L 10.296875 -12.53125 L 12.6875 -12.53125 Z M 12.6875 0 "/></g></g></g><g fill="#000000" fill-opacity="1"><g transform="translate(268.062595, 226.265136)"><g><path d="M 6.40625 0 L 3.75 0 L 3.75 -10.3125 L 0.34375 -10.3125 L 0.34375 -12.53125 L 9.8125 -12.53125 L 9.8125 -10.3125 L 6.40625 -10.3125 Z M 6.40625 0 "/></g></g></g></svg>