<svg xmlns="http://www.w3.org/2000/svg" xmlns:xlink="http://www.w3.org/1999/xlink" width="800" zoomAndPan="magnify" viewBox="0 0 600 599.999999" height="800" preserveAspectRatio="xMidYMid meet" version="1.0"><defs><g/></defs><g fill="#1f1f26" fill-opacity="1"><g transform="translate(191.018678, 401.433942)"><g><path d="M 54.296875 0 L 42.375 0 L 35.6875 -25.9375 C 35.445312 -26.851562 35.023438 -28.757812 34.421875 -31.65625 C 33.828125 -34.550781 33.484375 -36.492188 33.390625 -37.484375 C 33.253906 -36.265625 32.914062 -34.3125 32.375 -31.625 C 31.84375 -28.9375 31.429688 -27.015625 31.140625 -25.859375 L 24.484375 0 L 12.59375 0 L 0 -49.375 L 10.296875 -49.375 L 16.609375 -22.421875 C 17.710938 -17.441406 18.515625 -13.128906 19.015625 -9.484375 C 19.148438 -10.765625 19.457031 -12.75 19.9375 -15.4375 C 20.425781 -18.132812 20.882812 -20.226562 21.3125 -21.71875 L 28.5 -49.375 L 38.390625 -49.375 L 45.59375 -21.71875 C 45.90625 -20.476562 46.296875 -18.582031 46.765625 -16.03125 C 47.242188 -13.488281 47.601562 -11.304688 47.84375 -9.484375 C 48.070312 -11.242188 48.429688 -13.429688 48.921875 -16.046875 C 49.421875 -18.671875 49.875 -20.796875 50.28125 -22.421875 L 56.5625 -49.375 L 66.859375 -49.375 Z M 54.296875 0 "/></g></g></g><g fill="#1f1f26" fill-opacity="1"><g transform="translate(257.877205, 478.459442)"><g><path d="M 13.050781 -9.210938 L 13.050781 -53.730469 L 3.839844 -53.730469 L 3.839844 -9.210938 L 13.050781 -9.210938 L 13.050781 0 L 31.472656 0 L 31.472656 -9.210938 Z M 31.472656 -53.730469 L 31.472656 -9.210938 L 40.683594 -9.210938 L 40.683594 -53.730469 Z M 31.472656 -53.730469 "/></g></g></g><g fill="#1f1f26" fill-opacity="1"><g transform="translate(306.556744, 399.517186)"><g><path d="M 50.28125 0 L 39.25 0 L 33.0625 -24.015625 C 32.832031 -24.867188 32.4375 -26.632812 31.875 -29.3125 C 31.320312 -32 31.003906 -33.800781 30.921875 -34.71875 C 30.796875 -33.59375 30.484375 -31.78125 29.984375 -29.28125 C 29.484375 -26.789062 29.097656 -25.015625 28.828125 -23.953125 L 22.671875 0 L 11.671875 0 L 0 -45.71875 L 9.53125 -45.71875 L 15.390625 -20.765625 C 16.410156 -16.160156 17.148438 -12.164062 17.609375 -8.78125 C 17.734375 -9.96875 18.019531 -11.804688 18.46875 -14.296875 C 18.914062 -16.796875 19.335938 -18.734375 19.734375 -20.109375 L 26.390625 -45.71875 L 35.5625 -45.71875 L 42.21875 -20.109375 C 42.507812 -18.960938 42.875 -17.210938 43.3125 -14.859375 C 43.75 -12.503906 44.082031 -10.476562 44.3125 -8.78125 C 44.519531 -10.414062 44.851562 -12.445312 45.3125 -14.875 C 45.769531 -17.300781 46.1875 -19.265625 46.5625 -20.765625 L 52.375 -45.71875 L 61.921875 -45.71875 Z M 50.28125 0 "/></g></g></g><g fill="#1f1f26" fill-opacity="1"><g transform="translate(224.44795, 400.206461)"><g><path d="M 5.671875 0 L 4.21875 0 L 4.21875 -3.109375 C 4.21875 -3.878906 3.929688 -4.265625 3.359375 -4.265625 C 2.953125 -4.265625 2.660156 -4.125 2.484375 -3.84375 C 2.304688 -3.570312 2.21875 -3.125 2.21875 -2.5 L 2.21875 0 L 0.765625 0 L 0.765625 -7.40625 L 2.21875 -7.40625 L 2.21875 -5.90625 C 2.21875 -5.78125 2.207031 -5.5 2.1875 -5.0625 L 2.140625 -4.640625 L 2.21875 -4.640625 C 2.539062 -5.160156 3.054688 -5.421875 3.765625 -5.421875 C 4.390625 -5.421875 4.863281 -5.25 5.1875 -4.90625 C 5.507812 -4.570312 5.671875 -4.09375 5.671875 -3.46875 Z M 5.671875 0 "/></g></g></g><g fill="#1f1f26" fill-opacity="1"><g transform="translate(224.710223, 413.54874)"><g><path d="M 4.140625 0 L 3.859375 -0.71875 L 3.828125 -0.71875 C 3.578125 -0.414062 3.320312 -0.203125 3.0625 -0.078125 C 2.8125 0.0351562 2.476562 0.09375 2.0625 0.09375 C 1.550781 0.09375 1.144531 -0.0507812 0.84375 -0.34375 C 0.550781 -0.632812 0.40625 -1.050781 0.40625 -1.59375 C 0.40625 -2.15625 0.601562 -2.566406 1 -2.828125 C 1.394531 -3.097656 1.992188 -3.25 2.796875 -3.28125 L 3.71875 -3.3125 L 3.71875 -3.546875 C 3.71875 -4.085938 3.441406 -4.359375 2.890625 -4.359375 C 2.460938 -4.359375 1.960938 -4.226562 1.390625 -3.96875 L 0.90625 -4.953125 C 1.519531 -5.273438 2.195312 -5.4375 2.9375 -5.4375 C 3.65625 -5.4375 4.203125 -5.28125 4.578125 -4.96875 C 4.960938 -4.65625 5.15625 -4.179688 5.15625 -3.546875 L 5.15625 0 Z M 3.71875 -2.46875 L 3.15625 -2.453125 C 2.726562 -2.429688 2.410156 -2.351562 2.203125 -2.21875 C 2.003906 -2.082031 1.90625 -1.867188 1.90625 -1.578125 C 1.90625 -1.171875 2.140625 -0.96875 2.609375 -0.96875 C 2.941406 -0.96875 3.207031 -1.0625 3.40625 -1.25 C 3.613281 -1.445312 3.71875 -1.707031 3.71875 -2.03125 Z M 3.71875 -2.46875 "/></g></g></g><g fill="#1f1f26" fill-opacity="1"><g transform="translate(225.53739, 426.891019)"><g><path d="M 3 -1.0625 C 3.257812 -1.0625 3.566406 -1.117188 3.921875 -1.234375 L 3.921875 -0.140625 C 3.554688 0.015625 3.109375 0.09375 2.578125 0.09375 C 2.003906 0.09375 1.582031 -0.0507812 1.3125 -0.34375 C 1.050781 -0.632812 0.921875 -1.078125 0.921875 -1.671875 L 0.921875 -4.234375 L 0.21875 -4.234375 L 0.21875 -4.84375 L 1.03125 -5.328125 L 1.4375 -6.453125 L 2.375 -6.453125 L 2.375 -5.328125 L 3.859375 -5.328125 L 3.859375 -4.234375 L 2.375 -4.234375 L 2.375 -1.671875 C 2.375 -1.460938 2.429688 -1.304688 2.546875 -1.203125 C 2.660156 -1.109375 2.8125 -1.0625 3 -1.0625 Z M 3 -1.0625 "/></g></g></g><g fill="#1f1f26" fill-opacity="1"><g transform="translate(224.770747, 440.233297)"><g><path d="M 2.96875 -4.390625 C 2.65625 -4.390625 2.410156 -4.289062 2.234375 -4.09375 C 2.066406 -3.894531 1.96875 -3.617188 1.9375 -3.265625 L 3.984375 -3.265625 C 3.972656 -3.617188 3.875 -3.894531 3.6875 -4.09375 C 3.507812 -4.289062 3.269531 -4.390625 2.96875 -4.390625 Z M 3.171875 0.09375 C 2.316406 0.09375 1.644531 -0.140625 1.15625 -0.609375 C 0.675781 -1.085938 0.4375 -1.757812 0.4375 -2.625 C 0.4375 -3.519531 0.660156 -4.207031 1.109375 -4.6875 C 1.554688 -5.175781 2.171875 -5.421875 2.953125 -5.421875 C 3.703125 -5.421875 4.285156 -5.207031 4.703125 -4.78125 C 5.128906 -4.351562 5.34375 -3.757812 5.34375 -3 L 5.34375 -2.296875 L 1.90625 -2.296875 C 1.925781 -1.890625 2.050781 -1.566406 2.28125 -1.328125 C 2.507812 -1.097656 2.828125 -0.984375 3.234375 -0.984375 C 3.554688 -0.984375 3.859375 -1.015625 4.140625 -1.078125 C 4.429688 -1.148438 4.734375 -1.257812 5.046875 -1.40625 L 5.046875 -0.28125 C 4.785156 -0.15625 4.507812 -0.0625 4.21875 0 C 3.9375 0.0625 3.585938 0.09375 3.171875 0.09375 Z M 3.171875 0.09375 "/></g></g></g><g fill="#1f1f26" fill-opacity="1"><g transform="translate(224.878346, 453.575576)"><g><path d="M 2.03125 0 L 0 -5.328125 L 1.515625 -5.328125 L 2.546875 -2.296875 C 2.660156 -1.910156 2.734375 -1.546875 2.765625 -1.203125 L 2.796875 -1.203125 C 2.804688 -1.503906 2.875 -1.867188 3 -2.296875 L 4.03125 -5.328125 L 5.546875 -5.328125 L 3.515625 0 Z M 2.03125 0 "/></g></g></g><g fill="#1f1f26" fill-opacity="1"><g transform="translate(224.770747, 466.917855)"><g><path d="M 2.96875 -4.390625 C 2.65625 -4.390625 2.410156 -4.289062 2.234375 -4.09375 C 2.066406 -3.894531 1.96875 -3.617188 1.9375 -3.265625 L 3.984375 -3.265625 C 3.972656 -3.617188 3.875 -3.894531 3.6875 -4.09375 C 3.507812 -4.289062 3.269531 -4.390625 2.96875 -4.390625 Z M 3.171875 0.09375 C 2.316406 0.09375 1.644531 -0.140625 1.15625 -0.609375 C 0.675781 -1.085938 0.4375 -1.757812 0.4375 -2.625 C 0.4375 -3.519531 0.660156 -4.207031 1.109375 -4.6875 C 1.554688 -5.175781 2.171875 -5.421875 2.953125 -5.421875 C 3.703125 -5.421875 4.285156 -5.207031 4.703125 -4.78125 C 5.128906 -4.351562 5.34375 -3.757812 5.34375 -3 L 5.34375 -2.296875 L 1.90625 -2.296875 C 1.925781 -1.890625 2.050781 -1.566406 2.28125 -1.328125 C 2.507812 -1.097656 2.828125 -0.984375 3.234375 -0.984375 C 3.554688 -0.984375 3.859375 -1.015625 4.140625 -1.078125 C 4.429688 -1.148438 4.734375 -1.257812 5.046875 -1.40625 L 5.046875 -0.28125 C 4.785156 -0.15625 4.507812 -0.0625 4.21875 0 C 3.9375 0.0625 3.585938 0.09375 3.171875 0.09375 Z M 3.171875 0.09375 "/></g></g></g><g fill="#1f1f26" fill-opacity="1"><g transform="translate(225.436516, 480.260133)"><g><path d="M 3.734375 -5.421875 C 3.929688 -5.421875 4.09375 -5.40625 4.21875 -5.375 L 4.109375 -4.015625 C 3.992188 -4.046875 3.851562 -4.0625 3.6875 -4.0625 C 3.21875 -4.0625 2.851562 -3.941406 2.59375 -3.703125 C 2.34375 -3.472656 2.21875 -3.140625 2.21875 -2.703125 L 2.21875 0 L 0.765625 0 L 0.765625 -5.328125 L 1.859375 -5.328125 L 2.078125 -4.421875 L 2.140625 -4.421875 C 2.304688 -4.722656 2.53125 -4.960938 2.8125 -5.140625 C 3.09375 -5.328125 3.398438 -5.421875 3.734375 -5.421875 Z M 3.734375 -5.421875 "/></g></g></g><g fill="#1f1f26" fill-opacity="1"><g transform="translate(332.797661, 400.206461)"><g><path d="M 7.65625 0 L 5.96875 0 L 5.03125 -3.65625 C 5 -3.78125 4.941406 -4.046875 4.859375 -4.453125 C 4.773438 -4.867188 4.722656 -5.144531 4.703125 -5.28125 C 4.691406 -5.113281 4.644531 -4.835938 4.5625 -4.453125 C 4.488281 -4.078125 4.429688 -3.804688 4.390625 -3.640625 L 3.453125 0 L 1.78125 0 L 0 -6.953125 L 1.453125 -6.953125 L 2.34375 -3.15625 C 2.5 -2.457031 2.613281 -1.851562 2.6875 -1.34375 C 2.695312 -1.519531 2.734375 -1.796875 2.796875 -2.171875 C 2.867188 -2.554688 2.9375 -2.851562 3 -3.0625 L 4.015625 -6.953125 L 5.40625 -6.953125 L 6.421875 -3.0625 C 6.472656 -2.882812 6.53125 -2.613281 6.59375 -2.25 C 6.65625 -1.894531 6.707031 -1.59375 6.75 -1.34375 C 6.78125 -1.582031 6.828125 -1.882812 6.890625 -2.25 C 6.960938 -2.625 7.03125 -2.925781 7.09375 -3.15625 L 7.96875 -6.953125 L 9.421875 -6.953125 Z M 7.65625 0 "/></g></g></g><g fill="#1f1f26" fill-opacity="1"><g transform="translate(334.149374, 413.54874)"><g><path d="M 5.140625 0 L 4.625 -1.65625 L 2.09375 -1.65625 L 1.59375 0 L 0 0 L 2.453125 -6.984375 L 4.265625 -6.984375 L 6.734375 0 Z M 4.28125 -2.890625 C 3.8125 -4.390625 3.546875 -5.238281 3.484375 -5.4375 C 3.429688 -5.632812 3.390625 -5.789062 3.359375 -5.90625 C 3.253906 -5.5 2.957031 -4.492188 2.46875 -2.890625 Z M 4.28125 -2.890625 "/></g></g></g><g fill="#1f1f26" fill-opacity="1"><g transform="translate(333.550854, 426.891019)"><g><path d="M 7.046875 0 L 5.171875 0 L 2.140625 -5.265625 L 2.109375 -5.265625 C 2.160156 -4.335938 2.1875 -3.675781 2.1875 -3.28125 L 2.1875 0 L 0.875 0 L 0.875 -6.953125 L 2.734375 -6.953125 L 5.765625 -1.75 L 5.796875 -1.75 C 5.742188 -2.65625 5.71875 -3.296875 5.71875 -3.671875 L 5.71875 -6.953125 L 7.046875 -6.953125 Z M 7.046875 0 "/></g></g></g><g fill="#1f1f26" fill-opacity="1"><g transform="translate(334.687369, 440.233297)"><g><path d="M 3.5625 0 L 2.078125 0 L 2.078125 -5.734375 L 0.1875 -5.734375 L 0.1875 -6.953125 L 5.453125 -6.953125 L 5.453125 -5.734375 L 3.5625 -5.734375 Z M 3.5625 0 "/></g></g></g><g fill="#1f1f26" fill-opacity="1"><g transform="translate(341.31643, 478.406622)"><g><path d="M 9.511719 -155.976562 L 9.511719 -133.152344 L 55.164062 -133.152344 L 55.164062 0 L 77.988281 0 L 77.988281 -133.152344 L 55.164062 -133.152344 L 55.164062 -155.976562 Z M 55.164062 0 L 9.511719 0 L 9.511719 22.824219 L 55.164062 22.824219 Z M 55.164062 0 "/></g></g></g><g fill="#1f1f26" fill-opacity="1"><g transform="translate(120.898865, 480.119977)"><g><path d="M 9.511719 -133.152344 L 9.511719 0 L 32.335938 0 L 32.335938 22.824219 L 77.988281 22.824219 L 77.988281 0 L 32.335938 0 L 32.335938 -133.152344 Z M 32.335938 -155.976562 L 32.335938 -133.152344 L 77.988281 -133.152344 L 77.988281 -155.976562 Z M 32.335938 -155.976562 "/></g></g></g><g fill="#1f1f26" fill-opacity="1"><g transform="translate(310.07155, 537.578524)"><g><path d="M -56.082031 -4.003906 L 0 -4.003906 L 0 -13.621094 L 9.613281 -13.621094 L 9.613281 -32.847656 L 0 -32.847656 L 0 -13.621094 L -56.082031 -13.621094 Z M -65.695312 -13.621094 L -56.082031 -13.621094 L -56.082031 -32.847656 L -65.695312 -32.847656 Z M -65.695312 -13.621094 "/></g></g></g><g fill="#1f1f26" fill-opacity="1"><g transform="translate(266.72334, 476.82736)"><g><path d="M 56.082031 4.003906 L 0 4.003906 L 0 13.621094 L -9.613281 13.621094 L -9.613281 32.847656 L 0 32.847656 L 0 13.621094 L 56.082031 13.621094 Z M 65.695312 13.621094 L 56.082031 13.621094 L 56.082031 32.847656 L 65.695312 32.847656 Z M 65.695312 13.621094 "/></g></g></g><g fill="#baef73" fill-opacity="1"><g transform="translate(32.783422, 207.620907)"><g><path d="M 44.929688 -37.183594 L 63.523438 -37.183594 L 63.523438 -18.59375 L 82.117188 -18.59375 L 82.117188 0 L 100.707031 0 L 100.707031 -108.457031 L 82.117188 -108.457031 L 82.117188 -37.183594 L 63.523438 -37.183594 L 63.523438 -70.652344 L 44.929688 -70.652344 Z M 26.339844 0 L 26.339844 -18.59375 L 44.929688 -18.59375 L 44.929688 -37.183594 L 26.339844 -37.183594 L 26.339844 -108.457031 L 7.746094 -108.457031 L 7.746094 0 Z M 26.339844 0 "/></g></g></g><g fill="#baef73" fill-opacity="1"><g transform="translate(157.652333, 207.620907)"><g><path d="M 26.339844 -18.59375 L 26.339844 -108.457031 L 7.746094 -108.457031 L 7.746094 -18.59375 L 26.339844 -18.59375 L 26.339844 0 L 63.523438 0 L 63.523438 -18.59375 Z M 63.523438 -108.457031 L 63.523438 -18.59375 L 82.117188 -18.59375 L 82.117188 -108.457031 Z M 63.523438 -108.457031 "/></g></g></g><g fill="#baef73" fill-opacity="1"><g transform="translate(263.930551, 207.620907)"><g><path d="M 44.929688 -37.183594 L 63.523438 -37.183594 L 63.523438 -18.59375 L 82.117188 -18.59375 L 82.117188 0 L 100.707031 0 L 100.707031 -108.457031 L 82.117188 -108.457031 L 82.117188 -37.183594 L 63.523438 -37.183594 L 63.523438 -70.652344 L 44.929688 -70.652344 Z M 26.339844 0 L 26.339844 -18.59375 L 44.929688 -18.59375 L 44.929688 -37.183594 L 26.339844 -37.183594 L 26.339844 -108.457031 L 7.746094 -108.457031 L 7.746094 0 Z M 26.339844 0 "/></g></g></g><path stroke-linecap="butt" transform="matrix(0.98422, 0, 0, 0.98422, 25.93616, 46.25114)" fill="none" stroke-linejoin="miter" d="M 45.659355 119.220022 L 64.52741 119.220022 L 64.52741 138.092046 L 83.439122 138.092046 L 83.439122 156.999789 L 102.307177 156.999789 L 102.307177 46.811779 L 83.439122 46.811779 L 83.439122 119.220022 L 64.52741 119.220022 L 64.52741 85.206722 L 45.659355 85.206722 Z M 26.747643 156.999789 L 26.747643 138.092046 L 45.659355 138.092046 L 45.659355 119.220022 L 26.747643 119.220022 L 26.747643 46.811779 L 7.879588 46.811779 L 7.879588 156.999789 Z M 153.620824 138.092046 L 153.620824 46.811779 L 134.7488 46.811779 L 134.7488 138.092046 L 153.620824 138.092046 L 153.620824 156.999789 L 191.400591 156.999789 L 191.400591 138.092046 Z M 191.400591 46.811779 L 191.400591 138.092046 L 210.308334 138.092046 L 210.308334 46.811779 Z M 280.50988 119.220022 L 299.381904 119.220022 L 299.381904 138.092046 L 318.289647 138.092046 L 318.289647 156.999789 L 337.161671 156.999789 L 337.161671 46.811779 L 318.289647 46.811779 L 318.289647 119.220022 L 299.381904 119.220022 L 299.381904 85.206722 L 280.50988 85.206722 Z M 261.602137 156.999789 L 261.602137 138.092046 L 280.50988 138.092046 L 280.50988 119.220022 L 261.602137 119.220022 L 261.602137 46.811779 L 242.730113 46.811779 L 242.730113 156.999789 Z M 261.602137 156.999789 " stroke="#000000" stroke-width="5.90325" stroke-opacity="1" stroke-miterlimit="4"/><g fill="#000000" fill-opacity="1"><g transform="translate(27.482958, 266.708037)"><g><path d="M 10.148438 -8.398438 L 14.347656 -8.398438 L 14.347656 -4.199219 L 18.546875 -4.199219 L 18.546875 0 L 22.746094 0 L 22.746094 -24.496094 L 18.546875 -24.496094 L 18.546875 -8.398438 L 14.347656 -8.398438 L 14.347656 -15.957031 L 10.148438 -15.957031 Z M 5.949219 0 L 5.949219 -4.199219 L 10.148438 -4.199219 L 10.148438 -8.398438 L 5.949219 -8.398438 L 5.949219 -24.496094 L 1.75 -24.496094 L 1.75 0 Z M 5.949219 0 "/></g></g></g><g fill="#000000" fill-opacity="1"><g transform="translate(55.687439, 266.708037)"><g><path d="M 1.75 -24.496094 L 1.75 0 L 5.949219 0 L 5.949219 -10.148438 L 14.347656 -10.148438 L 14.347656 0 L 18.546875 0 L 18.546875 -24.496094 L 14.347656 -24.496094 L 14.347656 -14.347656 L 5.949219 -14.347656 L 5.949219 -24.496094 Z M 1.75 -24.496094 "/></g></g></g><g fill="#000000" fill-opacity="1"><g transform="translate(79.727861, 266.708037)"><g><path d="M 5.949219 -20.296875 L 14.347656 -20.296875 L 14.347656 -14.347656 L 5.949219 -14.347656 L 5.949219 -20.296875 L 1.75 -20.296875 L 1.75 0 L 5.949219 0 L 5.949219 -10.148438 L 14.347656 -10.148438 L 14.347656 0 L 18.546875 0 L 18.546875 -20.296875 L 14.347656 -20.296875 L 14.347656 -24.496094 L 5.949219 -24.496094 Z M 5.949219 -20.296875 "/></g></g></g><g fill="#000000" fill-opacity="1"><g transform="translate(103.73329, 266.708037)"><g><path d="M 1.75 -24.496094 L 1.75 -20.296875 L 8.050781 -20.296875 L 8.050781 0 L 12.25 0 L 12.25 -20.296875 L 18.546875 -20.296875 L 18.546875 -24.496094 Z M 1.75 -24.496094 "/></g></g></g><g fill="#000000" fill-opacity="1"><g transform="translate(127.738714, 266.708037)"><g><path d="M 1.75 -24.496094 L 1.75 0 L 18.546875 0 L 18.546875 -4.199219 L 5.949219 -4.199219 L 5.949219 -10.148438 L 14.347656 -10.148438 L 14.347656 -14.347656 L 5.949219 -14.347656 L 5.949219 -20.296875 L 18.546875 -20.296875 L 18.546875 -24.496094 Z M 1.75 -24.496094 "/></g></g></g><g fill="#000000" fill-opacity="1"><g transform="translate(151.779134, 266.708037)"><g><path d="M 10.148438 -4.199219 L 10.148438 -8.398438 L 5.949219 -8.398438 L 5.949219 -24.496094 L 1.75 -24.496094 L 1.75 -8.398438 L 5.949219 -8.398438 L 5.949219 -4.199219 L 10.148438 -4.199219 L 10.148438 0 L 14.347656 0 L 14.347656 -4.199219 Z M 18.546875 -24.496094 L 18.546875 -8.398438 L 22.746094 -8.398438 L 22.746094 -24.496094 Z M 14.347656 -8.398438 L 14.347656 -4.199219 L 18.546875 -4.199219 L 18.546875 -8.398438 Z M 14.347656 -8.398438 "/></g></g></g><g fill="#000000" fill-opacity="1"><g transform="translate(179.983611, 266.708037)"><g><path d="M 1.75 -24.496094 L 1.75 0 L 18.546875 0 L 18.546875 -4.199219 L 5.949219 -4.199219 L 5.949219 -10.148438 L 14.347656 -10.148438 L 14.347656 -14.347656 L 5.949219 -14.347656 L 5.949219 -20.296875 L 18.546875 -20.296875 L 18.546875 -24.496094 Z M 1.75 -24.496094 "/></g></g></g><g fill="#000000" fill-opacity="1"><g transform="translate(204.024031, 266.708037)"><g><path d="M 5.949219 -20.296875 L 14.347656 -20.296875 L 14.347656 -14.347656 L 18.546875 -14.347656 L 18.546875 -20.296875 L 14.347656 -20.296875 L 14.347656 -24.496094 L 1.75 -24.496094 L 1.75 0 L 5.949219 0 L 5.949219 -10.148438 L 14.347656 -10.148438 L 14.347656 0 L 18.546875 0 L 18.546875 -10.148438 L 14.347656 -10.148438 L 14.347656 -14.347656 L 5.949219 -14.347656 Z M 5.949219 -20.296875 "/></g></g></g><g fill="#000000" fill-opacity="1"><g transform="translate(228.029466, 266.708037)"><g/></g></g><g fill="#000000" fill-opacity="1"><g transform="translate(244.021714, 266.708037)"><g><path d="M 1.75 -24.496094 L 1.75 -18.441406 L 5.949219 -18.441406 L 5.949219 -14.242188 L 10.148438 -14.242188 L 10.148438 0 L 14.347656 0 L 14.347656 -14.242188 L 10.148438 -14.242188 L 10.148438 -18.441406 L 5.949219 -18.441406 L 5.949219 -24.496094 Z M 22.746094 -18.441406 L 22.746094 -24.496094 L 18.546875 -24.496094 L 18.546875 -18.441406 Z M 18.546875 -14.242188 L 18.546875 -18.441406 L 14.347656 -18.441406 L 14.347656 -14.242188 Z M 18.546875 -14.242188 "/></g></g></g><g fill="#000000" fill-opacity="1"><g transform="translate(272.226203, 266.708037)"><g><path d="M 5.949219 -20.296875 L 14.347656 -20.296875 L 14.347656 -4.199219 L 18.546875 -4.199219 L 18.546875 -20.296875 L 14.347656 -20.296875 L 14.347656 -24.496094 L 5.949219 -24.496094 Z M 5.949219 -20.296875 L 1.75 -20.296875 L 1.75 -4.199219 L 5.949219 -4.199219 L 5.949219 0 L 14.347656 0 L 14.347656 -4.199219 L 5.949219 -4.199219 Z M 5.949219 -20.296875 "/></g></g></g><g fill="#000000" fill-opacity="1"><g transform="translate(296.231627, 266.708037)"><g><path d="M 5.949219 -4.199219 L 5.949219 -24.496094 L 1.75 -24.496094 L 1.75 -4.199219 L 5.949219 -4.199219 L 5.949219 0 L 14.347656 0 L 14.347656 -4.199219 Z M 14.347656 -24.496094 L 14.347656 -4.199219 L 18.546875 -4.199219 L 18.546875 -24.496094 Z M 14.347656 -24.496094 "/></g></g></g><g fill="#000000" fill-opacity="1"><g transform="translate(320.237051, 266.708037)"><g/></g></g><g fill="#000000" fill-opacity="1"><g transform="translate(336.229299, 266.708037)"><g><path d="M 10.148438 -8.398438 L 14.347656 -8.398438 L 14.347656 -4.199219 L 18.546875 -4.199219 L 18.546875 0 L 22.746094 0 L 22.746094 -24.496094 L 18.546875 -24.496094 L 18.546875 -8.398438 L 14.347656 -8.398438 L 14.347656 -15.957031 L 10.148438 -15.957031 Z M 5.949219 0 L 5.949219 -4.199219 L 10.148438 -4.199219 L 10.148438 -8.398438 L 5.949219 -8.398438 L 5.949219 -24.496094 L 1.75 -24.496094 L 1.75 0 Z M 5.949219 0 "/></g></g></g><g fill="#000000" fill-opacity="1"><g transform="translate(364.433788, 266.708037)"><g><path d="M 5.949219 -20.296875 L 14.347656 -20.296875 L 14.347656 -14.347656 L 5.949219 -14.347656 L 5.949219 -20.296875 L 1.75 -20.296875 L 1.75 0 L 5.949219 0 L 5.949219 -10.148438 L 14.347656 -10.148438 L 14.347656 0 L 18.546875 0 L 18.546875 -20.296875 L 14.347656 -20.296875 L 14.347656 -24.496094 L 5.949219 -24.496094 Z M 5.949219 -20.296875 "/></g></g></g><g fill="#000000" fill-opacity="1"><g transform="translate(388.439212, 266.708037)"><g><path d="M 1.75 -24.496094 L 1.75 0 L 5.949219 0 L 5.949219 -16.097656 L 10.148438 -16.097656 L 10.148438 -11.898438 L 14.347656 -11.898438 L 14.347656 -7.699219 L 18.546875 -7.699219 L 18.546875 0 L 22.746094 0 L 22.746094 -24.496094 L 18.546875 -24.496094 L 18.546875 -11.898438 L 14.347656 -11.898438 L 14.347656 -16.097656 L 10.148438 -16.097656 L 10.148438 -20.296875 L 5.949219 -20.296875 L 5.949219 -24.496094 Z M 1.75 -24.496094 "/></g></g></g><g fill="#000000" fill-opacity="1"><g transform="translate(416.643679, 266.708037)"><g><path d="M 1.75 -24.496094 L 1.75 -20.296875 L 8.050781 -20.296875 L 8.050781 0 L 12.25 0 L 12.25 -20.296875 L 18.546875 -20.296875 L 18.546875 -24.496094 Z M 1.75 -24.496094 "/></g></g></g><path stroke-linecap="butt" transform="matrix(0.75, 0, 0, 0.75, 25.93616, 230.661236)" fill="none" stroke-linejoin="miter" d="M 13.533037 34.800645 L 19.126787 34.800645 L 19.126787 40.394396 L 24.730954 40.394396 L 24.730954 45.998563 L 30.324705 45.998563 L 30.324705 13.342311 L 24.730954 13.342311 L 24.730954 34.800645 L 19.126787 34.800645 L 19.126787 24.72252 L 13.533037 24.72252 Z M 7.92887 45.998563 L 7.92887 40.394396 L 13.533037 40.394396 L 13.533037 34.800645 L 7.92887 34.800645 L 7.92887 13.342311 L 2.33512 13.342311 L 2.33512 45.998563 Z M 39.939288 13.342311 L 39.939288 45.998563 L 45.533039 45.998563 L 45.533039 32.467312 L 56.730956 32.467312 L 56.730956 45.998563 L 62.335123 45.998563 L 62.335123 13.342311 L 56.730956 13.342311 L 56.730956 26.873562 L 45.533039 26.873562 L 45.533039 13.342311 Z M 77.590332 18.936061 L 88.788249 18.936061 L 88.788249 26.873562 L 77.590332 26.873562 L 77.590332 18.936061 L 71.996581 18.936061 L 71.996581 45.998563 L 77.590332 45.998563 L 77.590332 32.467312 L 88.788249 32.467312 L 88.788249 45.998563 L 94.392416 45.998563 L 94.392416 18.936061 L 88.788249 18.936061 L 88.788249 13.342311 L 77.590332 13.342311 Z M 104.001791 13.342311 L 104.001791 18.936061 L 112.397625 18.936061 L 112.397625 45.998563 L 118.001792 45.998563 L 118.001792 18.936061 L 126.397625 18.936061 L 126.397625 13.342311 Z M 136.012209 13.342311 L 136.012209 45.998563 L 158.408043 45.998563 L 158.408043 40.394396 L 141.600751 40.394396 L 141.600751 32.467312 L 152.798668 32.467312 L 152.798668 26.873562 L 141.600751 26.873562 L 141.600751 18.936061 L 158.408043 18.936061 L 158.408043 13.342311 Z M 179.262211 40.394396 L 179.262211 34.800645 L 173.658044 34.800645 L 173.658044 13.342311 L 168.064294 13.342311 L 168.064294 34.800645 L 173.658044 34.800645 L 173.658044 40.394396 L 179.262211 40.394396 L 179.262211 45.998563 L 184.855961 45.998563 L 184.855961 40.394396 Z M 190.460128 13.342311 L 190.460128 34.800645 L 196.053878 34.800645 L 196.053878 13.342311 Z M 184.855961 34.800645 L 184.855961 40.394396 L 190.460128 40.394396 L 190.460128 34.800645 Z M 205.668462 13.342311 L 205.668462 45.998563 L 228.064296 45.998563 L 228.064296 40.394396 L 211.262212 40.394396 L 211.262212 32.467312 L 222.460129 32.467312 L 222.460129 26.873562 L 211.262212 26.873562 L 211.262212 18.936061 L 228.064296 18.936061 L 228.064296 13.342311 Z M 243.314297 18.936061 L 254.512214 18.936061 L 254.512214 26.873562 L 260.121589 26.873562 L 260.121589 18.936061 L 254.512214 18.936061 L 254.512214 13.342311 L 237.725755 13.342311 L 237.725755 45.998563 L 243.314297 45.998563 L 243.314297 32.467312 L 254.512214 32.467312 L 254.512214 45.998563 L 260.121589 45.998563 L 260.121589 32.467312 L 254.512214 32.467312 L 254.512214 26.873562 L 243.314297 26.873562 Z M 291.053882 13.342311 L 291.053882 21.404812 L 296.647633 21.404812 L 296.647633 27.008978 L 302.251799 27.008978 L 302.251799 45.998563 L 307.84555 45.998563 L 307.84555 27.008978 L 302.251799 27.008978 L 302.251799 21.404812 L 296.647633 21.404812 L 296.647633 13.342311 Z M 319.043467 21.404812 L 319.043467 13.342311 L 313.449717 13.342311 L 313.449717 21.404812 Z M 313.449717 27.008978 L 313.449717 21.404812 L 307.84555 21.404812 L 307.84555 27.008978 Z M 334.251801 18.936061 L 345.449718 18.936061 L 345.449718 40.394396 L 351.053885 40.394396 L 351.053885 18.936061 L 345.449718 18.936061 L 345.449718 13.342311 L 334.251801 13.342311 Z M 334.251801 18.936061 L 328.658051 18.936061 L 328.658051 40.394396 L 334.251801 40.394396 L 334.251801 45.998563 L 345.449718 45.998563 L 345.449718 40.394396 L 334.251801 40.394396 Z M 366.262219 40.394396 L 366.262219 13.342311 L 360.668469 13.342311 L 360.668469 40.394396 L 366.262219 40.394396 L 366.262219 45.998563 L 377.460136 45.998563 L 377.460136 40.394396 Z M 377.460136 13.342311 L 377.460136 40.394396 L 383.064303 40.394396 L 383.064303 13.342311 Z M 425.194513 34.800645 L 430.788263 34.800645 L 430.788263 40.394396 L 436.39243 40.394396 L 436.39243 45.998563 L 441.98618 45.998563 L 441.98618 13.342311 L 436.39243 13.342311 L 436.39243 34.800645 L 430.788263 34.800645 L 430.788263 24.72252 L 425.194513 24.72252 Z M 419.590346 45.998563 L 419.590346 40.394396 L 425.194513 40.394396 L 425.194513 34.800645 L 419.590346 34.800645 L 419.590346 13.342311 L 413.996596 13.342311 L 413.996596 45.998563 Z M 457.194514 18.936061 L 468.392432 18.936061 L 468.392432 26.873562 L 457.194514 26.873562 L 457.194514 18.936061 L 451.600764 18.936061 L 451.600764 45.998563 L 457.194514 45.998563 L 457.194514 32.467312 L 468.392432 32.467312 L 468.392432 45.998563 L 473.996598 45.998563 L 473.996598 18.936061 L 468.392432 18.936061 L 468.392432 13.342311 L 457.194514 13.342311 Z M 483.611182 13.342311 L 483.611182 45.998563 L 489.204932 45.998563 L 489.204932 24.540228 L 494.809099 24.540228 L 494.809099 30.133979 L 500.40285 30.133979 L 500.40285 35.738146 L 506.007016 35.738146 L 506.007016 45.998563 L 511.600767 45.998563 L 511.600767 13.342311 L 506.007016 13.342311 L 506.007016 30.133979 L 500.40285 30.133979 L 500.40285 24.540228 L 494.809099 24.540228 L 494.809099 18.936061 L 489.204932 18.936061 L 489.204932 13.342311 Z M 521.21535 13.342311 L 521.21535 18.936061 L 529.611184 18.936061 L 529.611184 45.998563 L 535.215351 45.998563 L 535.215351 18.936061 L 543.611185 18.936061 L 543.611185 13.342311 Z M 521.21535 13.342311 " stroke="#1f1f26" stroke-width="1.750001" stroke-opacity="1" stroke-miterlimit="4"/></svg>